HIERARCHY
ROOT Hips
{
	OFFSET -0.179506 -22.333345 2.821913
	CHANNELS 6 Xposition Yposition Zposition Zrotation Yrotation Xrotation 
	JOINT LeftUpLeg
	{
		OFFSET 6.951974 -9.140623 -0.681533
		CHANNELS 3 Zrotation Yrotation Xrotation
		JOINT LeftLeg
		{
			OFFSET 3.427654 -37.519855 -0.449580
			CHANNELS 3 Zrotation Yrotation Xrotation
			JOINT LeftFoot
			{
				OFFSET -1.359570 -39.796059 -4.369333
				CHANNELS 3 Zrotation Yrotation Xrotation
				JOINT LeftToe
				{
					OFFSET 2.635814 -5.579078 11.928840
					CHANNELS 3 Zrotation Yrotation Xrotation
					End Site
					{
						OFFSET 0.000000 0.000000 0.000000
					}
				}
			}
		}
	}
	JOINT RightUpLeg
	{
		OFFSET -6.767048 -9.052170 -0.431982
		CHANNELS 3 Zrotation Yrotation Xrotation
		JOINT RightLeg
		{
			OFFSET -3.829005 -38.256897 -0.885003
			CHANNELS 3 Zrotation Yrotation Xrotation
			JOINT RightFoot
			{
				OFFSET 1.577377 -39.841461 -4.231180
				CHANNELS 3 Zrotation Yrotation Xrotation
				JOINT RightToe
				{
					OFFSET -2.537174 -4.814398 12.334795
					CHANNELS 3 Zrotation Yrotation Xrotation
					End Site
					{
						OFFSET 0.000000 0.000000 0.000000
					}
				}
			}
		}
	}
	JOINT Spine
	{
		OFFSET -0.253288 10.896323 -2.669631
		CHANNELS 3 Zrotation Yrotation Xrotation
		JOINT Spine1
		{
			OFFSET 0.548704 13.518043 0.109247
			CHANNELS 3 Zrotation Yrotation Xrotation
			JOINT Spine2
			{
				OFFSET 0.145701 5.292222 2.542457
				CHANNELS 3 Zrotation Yrotation Xrotation
				JOINT Neck
				{
					OFFSET -0.277840 21.387037 -4.285703
					CHANNELS 3 Zrotation Yrotation Xrotation
					JOINT Head
					{
						OFFSET 0.515184 6.496960 5.134897
						CHANNELS 3 Zrotation Yrotation Xrotation
						End Site
						{
							OFFSET 0.000000 0.000000 0.000000
						}
					}
				}
				JOINT LeftShoulder
				{
					OFFSET 7.884473 12.174932 -3.408961
					CHANNELS 3 Zrotation Yrotation Xrotation
					JOINT LeftArm
					{
						OFFSET 9.097692 3.046888 -0.886815
						CHANNELS 3 Zrotation Yrotation Xrotation
						JOINT LeftForeArm
						{
							OFFSET 25.961220 -1.277207 -2.745643
							CHANNELS 3 Zrotation Yrotation Xrotation
							JOINT LeftHand
							{
								OFFSET 24.923361 0.898606 -0.117091
								CHANNELS 3 Zrotation Yrotation Xrotation
								End Site
								{
									OFFSET 0.000000 0.000000 0.000000
								}
							}
						}
					}
				}
				JOINT RightShoulder
				{
					OFFSET -8.175920 11.883285 -3.861528
					CHANNELS 3 Zrotation Yrotation Xrotation
					JOINT RightArm
					{
						OFFSET -9.601238 3.255117 -0.914307
						CHANNELS 3 Zrotation Yrotation Xrotation
						JOINT RightForeArm
						{
							OFFSET -25.374195 -1.332924 -2.140099
							CHANNELS 3 Zrotation Yrotation Xrotation
							JOINT RightHand
							{
								OFFSET -25.529810 0.777228 -0.555919
								CHANNELS 3 Zrotation Yrotation Xrotation
								End Site
								{
									OFFSET 0.000000 0.000000 0.000000
								}
							}
						}
					}
				}
			}
		}
	}
}
MOTION
Frames: 6
Frame Time: 0.033333
217.462616 -185.028076 94.099388 45.262032 2.957396 82.535082 0.262202 1.417259 -0.230426 -2.162348 -7.998476 12.207490 3.366652 7.935515 -9.123510 nan nan nan -2.512502 -6.317034 -1.520770 0.331152 -5.443956 14.123023 8.652671 -4.557121 -1.462427 nan nan nan -0.053662 2.610867 15.921904 1.117565 -1.454334 4.048155 -0.291388 0.647692 1.374084 -0.090056 1.894847 19.662422 0.445810 -1.678899 12.556317 -22.100517 0.911226 1.314445 -50.545617 -7.724239 10.235662 2.132548 -23.568844 9.134652 -8.122633 -1.759709 -7.243155 23.497741 1.486319 -0.591178 54.568805 7.771919 14.125617 -6.553000 28.660132 2.279516 18.659212 1.912889 -10.934263 
217.406723 -185.031769 94.087112 45.138916 2.851690 82.674436 0.164519 1.262598 -0.453518 -2.274817 -7.957350 12.289117 3.439219 8.292269 -9.004645 nan nan nan -2.430058 -6.071801 -1.744627 0.236767 -5.226037 14.205839 8.676696 -4.883134 -1.780042 nan nan nan 0.025252 2.572462 15.977306 0.922436 -1.451989 3.626786 -0.378556 0.632264 1.367834 -0.070006 1.955977 19.757941 0.377282 -1.440935 12.617943 -22.269614 0.950227 1.392843 -50.439013 -7.640744 10.198459 2.398381 -23.711052 9.115921 -7.749076 -1.719054 -7.415251 23.672297 1.550633 -0.500214 54.704796 7.891994 14.138612 -6.717460 28.310313 2.125477 18.155276 1.696314 -10.828974 
217.329514 -185.049393 94.073715 45.151816 2.799190 82.772391 0.146149 1.154845 -0.690322 -2.328383 -7.894794 12.471653 3.346249 8.358042 -9.029454 nan nan nan -2.336157 -6.017543 -1.905178 0.139439 -5.158345 14.294046 8.640401 -5.004022 -2.117455 nan nan nan 0.045536 2.555624 16.009479 0.861639 -1.478718 3.435871 -0.421138 0.584819 1.297545 -0.038836 2.029255 19.765104 0.321352 -1.377636 12.612491 -22.343927 0.961446 1.374314 -50.395028 -7.635140 10.193810 2.449343 -23.677920 9.067995 -7.765146 -1.582606 -7.514746 23.789556 1.520846 -0.493157 54.709549 7.956805 14.173327 -6.694903 28.112655 2.228659 18.026498 1.536398 -10.716483 
217.270187 -185.104477 94.056328 45.262060 2.794596 82.665035 0.177360 1.093354 -0.658557 -2.328100 -7.981693 12.639089 3.163888 8.297936 -9.157788 nan nan nan -2.220970 -6.068555 -1.688467 -0.002550 -5.192804 14.178925 8.634694 -5.006180 -2.372865 nan nan nan 0.094109 2.556755 16.135442 0.804155 -1.550015 3.388945 -0.442875 0.540979 1.307902 0.060572 2.045482 19.662297 0.356338 -1.389437 12.541177 -22.511977 0.844793 1.315725 -50.194115 -7.706837 10.081215 2.902264 -24.075240 9.069654 -6.818521 -1.626684 -6.211379 23.895351 1.567792 -0.609223 54.669624 7.846801 14.098574 -6.564018 28.056893 2.534707 17.576069 1.475589 -10.466133 
217.224487 -185.307129 94.041245 45.711772 2.850508 82.377075 0.422025 1.107214 -0.345823 -2.464736 -8.302591 12.755112 3.030969 8.162534 -9.190651 nan nan nan -1.988662 -6.395716 -0.911341 -0.146398 -5.083911 13.641006 8.458019 -5.150017 -2.599201 nan nan nan -0.079294 2.560452 16.008796 0.877512 -1.816734 3.653425 -0.295916 0.423967 1.484009 0.101556 2.091893 19.626170 0.433519 -1.518086 12.344585 -22.392776 0.751832 1.313253 -50.351663 -7.792239 9.958841 3.145747 -24.077209 9.159322 -5.492826 -1.427139 -6.246456 24.063681 1.675858 -0.606235 54.730995 7.944015 14.178086 -6.427300 27.562488 4.385798 16.233522 0.784532 -7.960852 
217.095016 -185.206482 94.063751 44.914639 2.921117 82.333150 0.554690 1.295050 -0.369197 -2.448566 -7.969061 12.775765 3.396144 8.431518 -9.101621 nan nan nan -1.730412 -5.884262 -1.351432 -0.314355 -4.748306 14.025336 8.616758 -5.193461 -2.485349 nan nan nan 0.218355 2.609694 16.137097 0.839444 -1.466645 3.705813 -0.443714 0.673149 1.385982 0.012456 2.401387 19.707787 0.288073 -1.932285 12.012408 -22.119529 0.779307 1.218341 -50.654218 -7.947210 9.700562 2.313970 -23.544234 10.050700 -12.409693 -1.223079 -8.913227 24.134472 1.636285 -0.495906 54.916057 8.359655 14.645271 -6.613290 26.558867 8.897723 17.552095 -1.432905 -2.805574 
